<svg xmlns="http://www.w3.org/2000/svg" fill="none" viewBox="0 0 320 320" height="320" width="320">
<rect fill="url(#paint0_radial_6_406)" height="320" width="320"></rect>
<g clip-path="url(#clip0_6_406)">
<path fill="white" d="M175.706 81.2196C174.054 78.477 171.721 76.2082 168.933 74.6331C166.145 73.0581 162.997 72.2305 159.795 72.2305C156.593 72.2305 153.446 73.0581 150.658 74.6331C147.87 76.2082 145.537 78.477 143.884 81.2196L117.71 126.049C137.706 136.032 154.743 151.072 167.129 169.676C179.514 188.279 186.819 209.798 188.316 232.098H169.939C168.444 212.983 161.984 194.59 151.198 178.739C140.412 162.888 125.674 150.128 108.442 141.722L84.2171 183.608C93.9044 187.953 102.344 194.663 108.759 203.122C115.175 211.582 119.361 221.518 120.932 232.018H78.7277C78.2272 231.983 77.7434 231.823 77.3198 231.554C76.8963 231.285 76.5464 230.915 76.3017 230.477C76.057 230.039 75.9252 229.546 75.9182 229.045C75.9112 228.543 76.0292 228.047 76.2615 227.603L87.9562 207.714C83.9941 204.408 79.4658 201.847 74.5908 200.156L63.0154 220.045C61.8104 222.112 61.0281 224.398 60.7139 226.77C60.3998 229.141 60.5601 231.552 61.1856 233.861C61.8111 236.171 62.8892 238.333 64.3574 240.222C65.8255 242.111 67.6545 243.69 69.7379 244.866C72.483 246.413 75.577 247.234 78.7277 247.253H136.525C137.599 234.007 135.233 220.709 129.658 208.645C124.083 196.582 115.487 186.163 104.703 178.397L113.891 162.486C127.501 171.834 138.438 184.568 145.623 199.434C152.808 214.299 155.993 230.781 154.863 247.253H203.83C204.97 222.3 199.541 197.485 188.087 175.288C176.632 153.09 159.552 134.287 138.554 120.759L157.13 88.9366C157.544 88.243 158.215 87.741 158.997 87.5399C159.78 87.3388 160.61 87.4547 161.307 87.8626C163.415 89.0161 242.016 226.171 243.488 227.762C243.747 228.227 243.879 228.752 243.871 229.284C243.862 229.816 243.713 230.337 243.438 230.793C243.164 231.249 242.774 231.625 242.307 231.882C241.841 232.139 241.316 232.268 240.783 232.257H221.849C222.088 237.322 222.088 242.374 221.849 247.412H240.863C243.277 247.428 245.671 246.965 247.905 246.049C250.139 245.134 252.17 243.784 253.879 242.079C255.588 240.373 256.942 238.346 257.862 236.114C258.782 233.881 259.251 231.489 259.24 229.074C259.243 225.885 258.391 222.754 256.774 220.005L175.706 81.2196Z"></path>
</g>
<defs>
<radialGradient gradientTransform="translate(160 175) rotate(135.18) scale(225.568 248.903)" gradientUnits="userSpaceOnUse" r="1" cy="0" cx="0" id="paint0_radial_6_406">
<stop stop-color="#BF24D1"></stop>
<stop stop-color="#821EBD" offset="0.5"></stop>
<stop stop-color="#3B168A" offset="1"></stop>
</radialGradient>
<clipPath id="clip0_6_406">
<rect transform="translate(60.0996 60.1001)" fill="white" height="199.8" width="199.8"></rect>
</clipPath>
</defs>
</svg>
